<?xml version="1.0" standalone="no"?>
<!DOCTYPE svg PUBLIC "-//W3C//DTD SVG 20010904//EN"
 "http://www.w3.org/TR/2001/REC-SVG-20010904/DTD/svg10.dtd">
<svg version="1.0" xmlns="http://www.w3.org/2000/svg"
 width="600.000000pt" height="450.000000pt" viewBox="0 0 600.000000 450.000000"
 preserveAspectRatio="xMidYMid meet">

<g transform="translate(0.000000,450.000000) scale(0.100000,-0.100000)"
fill="#000000" stroke="none">
<path d="M4048 4213 c-18 -8 -52 -23 -75 -34 l-43 -19 0 -137 c0 -76 -3 -499
-7 -940 l-6 -802 29 -12 c16 -6 38 -15 49 -20 114 -47 111 -47 179 -15 28 13
59 26 69 30 16 5 17 33 18 383 0 208 2 385 3 393 2 8 6 259 10 557 6 446 5
545 -6 556 -7 7 -36 22 -63 32 -28 10 -54 22 -60 25 -22 15 -66 16 -97 3z"/>
<path d="M2576 4205 c-19 -14 -46 -60 -46 -77 0 -17 24 -33 81 -56 52 -22 89
-22 89 0 0 23 -25 105 -38 126 -16 25 -57 29 -86 7z"/>
<path d="M3250 4024 c-8 -3 -29 -12 -45 -19 -17 -8 -43 -18 -58 -24 l-27 -11
-1 -397 c-1 -491 -6 -776 -14 -868 -3 -38 -2 -75 2 -81 9 -12 90 -50 127 -60
14 -3 29 -10 32 -15 6 -11 48 -12 58 -2 4 4 33 17 64 29 l57 21 6 144 c4 79 7
388 8 687 1 521 0 542 -18 542 -10 0 -39 11 -64 24 -49 26 -102 39 -127 30z
m-43 -130 c-3 -3 -12 -4 -19 -1 -8 3 -5 6 6 6 11 1 17 -2 13 -5z"/>
<path d="M2520 3935 c-7 -8 -10 -19 -6 -23 4 -4 12 1 17 11 11 19 64 24 72 7
3 -6 4 -5 3 2 -4 20 -70 22 -86 3z"/>
<path d="M2652 3828 c-2 -42 -5 -48 -27 -54 -14 -3 -37 -4 -50 -2 -33 7 -31 3
5 -16 28 -14 32 -13 56 7 22 19 25 29 21 67 l-4 45 -1 -47z"/>
<path d="M2502 3623 c17 -176 40 -243 89 -256 22 -6 34 11 44 66 5 25 13 37
24 37 29 1 51 26 51 58 0 17 5 43 12 57 14 32 5 42 -26 25 -21 -11 -30 -10
-58 2 -18 9 -50 22 -70 29 -21 7 -38 17 -38 21 0 4 -7 8 -16 8 -13 0 -15 -9
-12 -47z"/>
<path d="M1670 3648 c-25 -5 -49 -14 -54 -19 -15 -14 -44 -11 -54 7 -8 14 -10
14 -25 -1 -10 -9 -17 -27 -17 -40 0 -14 -9 -44 -19 -67 -33 -74 -43 -123 -38
-179 9 -91 45 -229 59 -229 4 0 8 -7 8 -15 0 -19 58 -110 94 -147 53 -55 131
-99 202 -113 51 -10 172 35 216 82 51 53 71 117 71 223 -1 93 -27 220 -45 220
-4 0 -8 7 -8 16 0 41 -90 156 -174 222 -49 39 -145 57 -216 40z m61 -72 c66
-20 87 -34 145 -94 54 -55 92 -122 120 -210 21 -66 15 -211 -10 -259 -72 -136
-215 -138 -347 -3 -91 93 -129 191 -129 332 0 96 3 108 47 181 9 15 41 -24 97
-118 46 -77 55 -99 50 -124 -7 -35 17 -95 42 -105 31 -12 55 -6 63 17 10 25 3
87 -9 87 -5 0 -12 9 -15 20 -3 11 -15 20 -25 20 -27 0 -56 29 -86 90 -16 30
-36 63 -45 73 -9 10 -19 34 -21 53 -3 29 -1 34 17 34 11 0 27 5 35 10 19 12
16 12 71 -4z"/>
<path d="M2377 3622 c-40 -19 -32 -47 13 -47 38 0 52 24 28 48 -11 10 -18 10
-41 -1z"/>
<path d="M4464 3535 c-11 -8 -29 -15 -41 -15 -13 0 -23 -4 -23 -10 0 -5 -8
-10 -17 -10 -10 0 -25 -6 -34 -13 -15 -11 -17 -78 -20 -689 -2 -372 -2 -678 1
-680 8 -7 77 -38 84 -38 3 0 26 -10 51 -21 43 -20 47 -21 83 -4 53 23 74 32
95 39 12 4 17 17 18 48 0 24 2 58 3 75 2 18 7 306 11 641 l7 608 -33 16 c-38
18 -66 29 -125 52 -36 13 -44 13 -60 1z"/>
<path d="M2835 3442 c-11 -2 -28 -10 -37 -17 -17 -11 -16 -13 7 -35 22 -21 27
-22 50 -10 14 7 25 19 25 25 0 21 -25 42 -45 37z"/>
<path d="M5179 3433 c-4 -29 4 -80 14 -88 7 -6 17 -19 23 -30 6 -11 20 -21 30
-23 25 -3 75 43 68 63 -4 8 -1 22 6 30 10 13 8 15 -13 15 -14 0 -29 5 -32 10
-3 6 -19 10 -35 10 -16 0 -32 5 -35 10 -7 12 -25 13 -26 3z"/>
<path d="M3616 3370 c-22 -11 -45 -20 -51 -20 -7 0 -19 -8 -28 -18 -15 -17
-17 -63 -17 -456 l0 -436 28 -10 c15 -5 40 -16 55 -25 16 -8 37 -15 47 -15 10
0 22 -4 25 -10 8 -12 39 -13 63 -1 26 13 64 29 95 41 l27 10 0 445 0 445 -32
14 c-18 8 -50 22 -71 31 -60 26 -98 27 -141 5z"/>
<path d="M2438 3313 c7 -3 16 -2 19 1 4 3 -2 6 -13 5 -11 0 -14 -3 -6 -6z"/>
<path d="M4900 3207 c0 -47 -3 -44 90 -84 19 -8 43 -19 52 -24 10 -5 26 -9 35
-9 10 0 27 -7 37 -15 11 -8 30 -15 43 -15 13 0 23 -3 23 -8 0 -4 17 -12 37
-19 42 -13 53 -6 53 34 0 38 -11 52 -46 59 -19 3 -37 10 -40 15 -3 5 -14 9
-25 9 -10 0 -19 5 -19 10 0 6 -9 10 -20 10 -11 0 -28 4 -38 10 -9 5 -35 16
-57 25 -22 9 -55 23 -73 31 -48 21 -52 18 -52 -29z"/>
<path d="M2768 3143 c7 -3 16 -2 19 1 4 3 -2 6 -13 5 -11 0 -14 -3 -6 -6z"/>
<path d="M4946 3024 c-9 -24 3 -35 25 -24 47 26 56 -39 9 -67 -26 -15 -49 -50
-38 -56 1 -2 24 -10 51 -19 54 -20 68 -2 17 21 -25 10 -28 16 -19 27 6 8 17
14 24 14 14 0 25 22 25 51 0 24 -46 69 -70 69 -10 0 -21 -7 -24 -16z"/>
<path d="M888 3022 c-16 -2 -28 -8 -28 -13 0 -5 -7 -9 -15 -9 -9 0 -28 -8 -43
-17 -70 -45 -89 -97 -77 -209 6 -55 28 -124 40 -124 3 0 18 14 35 30 17 17 33
30 36 30 3 0 17 9 30 19 22 17 37 19 142 14 149 -6 160 -1 134 72 -9 28 -20
52 -24 53 -5 2 -8 9 -8 16 0 18 -96 116 -114 116 -8 0 -16 4 -18 8 -4 11 -55
19 -90 14z m22 -87 c0 -25 -3 -45 -7 -45 -5 0 -8 20 -8 45 -1 25 3 45 7 45 4
0 8 -20 8 -45z m0 -145 c0 -5 -2 -10 -4 -10 -3 0 -8 5 -11 10 -3 6 -1 10 4 10
6 0 11 -4 11 -10z"/>
<path d="M5097 2953 c-8 -45 -5 -49 33 -56 25 -6 30 -11 30 -36 0 -16 -5 -33
-10 -36 -11 -7 -40 18 -40 34 0 6 -4 11 -10 11 -18 0 -11 -29 12 -50 28 -26
65 -26 73 0 12 37 -4 78 -36 92 -38 17 -31 34 11 30 30 -3 32 -2 21 12 -8 9
-22 16 -32 16 -10 0 -21 5 -24 10 -12 19 -22 10 -28 -27z"/>
<path d="M1875 2280 c-3 -5 -15 -10 -26 -10 -10 0 -19 -4 -19 -10 0 -5 -7 -10
-16 -10 -14 0 -64 -19 -104 -40 -9 -4 -30 -11 -48 -14 -17 -4 -34 -12 -37 -17
-4 -5 -15 -9 -26 -9 -10 0 -19 -4 -19 -10 0 -5 -7 -10 -16 -10 -9 0 -31 -7
-50 -15 -30 -13 -67 -29 -129 -55 -11 -4 -36 -15 -57 -24 -20 -9 -43 -16 -51
-16 -9 0 -19 -4 -22 -10 -3 -5 -15 -10 -26 -10 -10 0 -19 -4 -19 -9 0 -5 -13
-12 -30 -16 -16 -3 -47 -15 -68 -25 -21 -10 -50 -22 -65 -25 -15 -4 -30 -11
-33 -16 -3 -5 -16 -9 -29 -9 -13 0 -25 -3 -27 -8 -1 -4 -37 -20 -78 -36 -76
-29 -113 -44 -174 -71 -19 -8 -37 -15 -40 -15 -3 0 -30 -11 -60 -25 -30 -14
-59 -25 -65 -25 -6 0 -26 -9 -46 -20 -20 -11 -40 -20 -46 -20 -6 0 -26 -7 -45
-15 -19 -8 -49 -22 -68 -30 -19 -8 -39 -15 -44 -15 -6 0 -29 -10 -52 -22 -32
-18 -40 -27 -38 -46 2 -19 17 -29 78 -54 41 -16 99 -41 128 -54 29 -13 55 -24
59 -24 5 0 299 -118 398 -160 88 -37 126 -52 185 -75 25 -10 69 -28 98 -41 29
-13 57 -24 63 -24 6 0 36 -12 67 -26 31 -14 66 -29 77 -33 11 -5 37 -16 58
-25 21 -9 44 -16 52 -16 8 0 15 -4 15 -10 0 -5 7 -10 15 -10 14 0 33 -7 138
-54 32 -14 63 -26 70 -26 7 0 17 -4 23 -9 5 -4 45 -22 89 -39 76 -29 357 -142
400 -161 11 -5 67 -28 125 -51 58 -23 129 -53 158 -66 29 -13 57 -24 62 -24
10 0 20 -4 78 -33 19 -9 38 -17 43 -17 6 0 29 -9 52 -20 84 -41 124 -35 302
44 17 8 107 44 200 81 94 37 184 73 200 80 17 7 77 32 135 55 58 23 119 48
137 56 17 8 34 14 37 14 3 0 25 9 49 19 23 10 78 33 122 51 44 18 83 34 87 37
4 2 -19 36 -52 75 -33 39 -60 74 -60 79 0 7 -73 -18 -135 -46 -16 -8 -66 -28
-110 -45 -44 -17 -91 -36 -105 -42 -42 -18 -62 -26 -145 -58 -44 -17 -90 -35
-102 -40 -55 -24 -127 -53 -208 -85 -38 -15 -79 -31 -90 -35 -164 -70 -263
-105 -275 -99 -8 4 -62 26 -120 49 -101 40 -124 49 -172 70 -13 5 -59 23 -103
40 -44 17 -89 35 -100 39 -59 26 -98 42 -175 71 -47 17 -104 41 -127 51 -23
10 -48 19 -55 19 -8 0 -18 4 -24 9 -5 4 -43 21 -84 36 -41 15 -79 32 -84 36
-6 5 -17 9 -25 9 -9 0 -27 6 -41 13 -14 8 -59 26 -100 42 -41 15 -79 32 -84
36 -6 5 -16 9 -24 9 -7 0 -38 11 -68 25 -30 14 -57 25 -60 25 -3 0 -20 6 -37
14 -18 7 -63 26 -102 41 -38 15 -79 31 -90 35 -11 5 -67 28 -125 50 -58 23
-114 46 -125 50 -11 5 -56 23 -100 40 -44 17 -89 35 -100 39 -32 14 -88 37
-122 51 -40 15 -42 26 -6 35 15 3 45 15 67 26 22 10 43 19 48 19 4 0 31 11 60
24 29 13 112 47 183 76 204 82 396 159 445 180 25 10 92 37 150 60 147 58 167
67 240 98 14 6 72 29 130 52 58 23 111 47 119 54 18 14 51 88 45 98 -7 12 -72
10 -79 -2z m1844 -1323 c42 -21 34 -34 -37 -61 -69 -26 -70 -27 -102 -9 -34
19 -40 34 -18 44 87 42 117 47 157 26z"/>
<path d="M4145 1977 c-22 -7 -53 -19 -70 -29 -33 -18 -95 -82 -95 -98 0 -5 -3
-10 -7 -10 -5 0 -15 -26 -25 -58 -45 -157 -46 -175 -23 -292 24 -123 32 -149
74 -240 70 -150 198 -275 322 -313 60 -18 144 -23 154 -8 3 5 18 12 34 16 33
7 109 84 133 135 31 68 37 86 49 158 10 59 10 89 -1 155 -7 45 -16 87 -20 92
-4 6 -10 28 -13 50 -7 47 -69 175 -112 231 -81 108 -197 193 -281 208 -18 3
-42 7 -55 10 -13 2 -42 -1 -64 -7z m170 -125 c108 -46 189 -137 248 -282 40
-97 42 -107 41 -225 0 -114 -2 -123 -31 -180 -48 -93 -96 -125 -186 -125 -75
0 -134 27 -205 94 -59 55 -107 124 -136 196 -10 25 -23 56 -30 69 -6 14 -11
79 -11 160 0 131 1 138 29 185 52 91 104 126 186 125 30 0 73 -8 95 -17z"/>
<path d="M4690 1058 c-16 -39 -17 -40 -69 -99 -37 -42 -39 -46 -23 -61 48 -43
132 -138 132 -150 0 -10 2 -10 9 1 5 8 29 22 53 31 44 18 76 60 92 123 6 24 3
29 -21 38 -15 6 -55 42 -88 79 -33 38 -62 69 -65 69 -3 1 -12 -14 -20 -31z"/>
</g>
</svg>
